<svg width="204" height="63" viewBox="0 0 204 63" fill="none" xmlns="http://www.w3.org/2000/svg">
<path d="M37.8077 20.5472L48.1996 30.9258L37.8077 41.2624L62.1821 30.9258L37.8077 20.5472Z" fill="url(#paint0_linear)"/>
<path d="M43.426 12.1854L0 30.9257L43.426 49.666L24.5433 30.9257L43.426 12.1854Z" fill="url(#paint1_linear)"/>
<path d="M37.8077 41.2621L44.6934 48.2792L62.1821 30.9256L37.8077 41.2621Z" fill="url(#paint2_linear)"/>
<path d="M37.8077 20.5473L62.1821 30.9258L44.6934 13.5722L37.8077 20.5473Z" fill="url(#paint3_linear)"/>
<path d="M31.1755 61.8512L43.426 49.6658L0 30.9256L31.1755 61.8512Z" fill="url(#paint4_linear)"/>
<path d="M31.1755 0L0 30.9257L43.426 12.1854L31.1755 0Z" fill="url(#paint5_linear)"/>
<path d="M0 30.9256H24.5433L43.426 49.6658L0 30.9256Z" fill="url(#paint6_linear)"/>
<path d="M48.1995 30.9256H62.182L37.8499 41.2201L48.1995 30.9256Z" fill="url(#paint7_linear)"/>
<path d="M87.7885 21.6254H80.1145V26.7257H87.5283V29.5881H80.1145V36.9783H77.123V18.763H87.7885V21.6254Z" fill="white"/>
<path d="M93.7346 26.1532C94.4456 24.5399 95.7809 23.7332 97.7406 23.7332V26.7777C96.6654 26.7083 95.7289 26.9686 94.9312 27.5584C94.1334 28.1309 93.7346 29.085 93.7346 30.4208V36.9783H90.9251V23.9674H93.7346V26.1532Z" fill="white"/>
<path d="M101.938 31.6698C102.146 32.6587 102.623 33.422 103.369 33.9597C104.115 34.4802 105.025 34.7404 106.1 34.7404C107.592 34.7404 108.71 34.2026 109.456 33.127L111.771 34.4802C110.488 36.3711 108.589 37.3165 106.074 37.3165C103.959 37.3165 102.25 36.6747 100.95 35.3909C99.649 34.0898 98.9986 32.4505 98.9986 30.4728C98.9986 28.5299 99.6403 26.9078 100.924 25.6068C102.207 24.2883 103.854 23.6291 105.866 23.6291C107.774 23.6291 109.335 24.297 110.549 25.6328C111.78 26.9686 112.396 28.5906 112.396 30.4988C112.396 30.7938 112.361 31.1841 112.291 31.6698H101.938ZM101.912 29.3799H109.56C109.369 28.3217 108.927 27.5237 108.233 26.9859C107.557 26.4481 106.759 26.1792 105.84 26.1792C104.8 26.1792 103.933 26.4655 103.239 27.038C102.545 27.6104 102.103 28.3911 101.912 29.3799Z" fill="white"/>
<path d="M117.403 27.5584C117.403 27.9921 117.637 28.339 118.105 28.5993C118.591 28.8421 119.172 29.059 119.848 29.2498C120.542 29.4233 121.236 29.6315 121.929 29.8743C122.623 30.1172 123.204 30.5335 123.672 31.1234C124.158 31.6958 124.401 32.4245 124.401 33.3092C124.401 34.5582 123.915 35.5384 122.944 36.2497C121.99 36.9609 120.785 37.3165 119.328 37.3165C118.045 37.3165 116.944 37.0476 116.024 36.5099C115.105 35.9721 114.438 35.2261 114.021 34.272L116.441 32.8668C116.892 34.1159 117.854 34.7404 119.328 34.7404C120.802 34.7404 121.539 34.2547 121.539 33.2832C121.539 32.8668 121.296 32.5285 120.811 32.2683C120.343 32.0081 119.762 31.7913 119.068 31.6178C118.392 31.427 117.707 31.2101 117.013 30.9672C116.319 30.7244 115.73 30.3254 115.244 29.7702C114.776 29.1978 114.542 28.4778 114.542 27.6104C114.542 26.4134 114.993 25.4506 115.894 24.722C116.813 23.9934 117.949 23.6291 119.302 23.6291C120.377 23.6291 121.331 23.872 122.164 24.3577C123.013 24.8261 123.664 25.4853 124.115 26.3354L121.747 27.6625C121.296 26.6736 120.481 26.1792 119.302 26.1792C118.764 26.1792 118.314 26.3007 117.949 26.5435C117.585 26.7691 117.403 27.1073 117.403 27.5584Z" fill="white"/>
<path d="M134.08 23.6291C135.571 23.6291 136.776 24.1062 137.696 25.0603C138.615 26.0144 139.074 27.3242 139.074 28.9896V36.9783H136.265V29.2758C136.265 28.3043 136.005 27.5584 135.484 27.038C134.964 26.5175 134.253 26.2573 133.351 26.2573C132.363 26.2573 131.565 26.5696 130.958 27.1941C130.351 27.8013 130.048 28.738 130.048 30.0044V36.9783H127.238V18.763H130.048V25.6328C130.897 24.297 132.241 23.6291 134.08 23.6291Z" fill="white"/>
<path d="M148.759 37.3165C146.799 37.3165 145.16 36.6573 143.842 35.3389C142.542 34.0205 141.891 32.3984 141.891 30.4728C141.891 28.5299 142.542 26.9078 143.842 25.6068C145.16 24.2883 146.799 23.6291 148.759 23.6291C150.025 23.6291 151.178 23.9327 152.219 24.5399C153.259 25.147 154.04 25.9624 154.56 26.9859L152.141 28.3911C151.846 27.7666 151.395 27.2808 150.788 26.9339C150.198 26.5696 149.513 26.3874 148.733 26.3874C147.588 26.3874 146.626 26.7777 145.845 27.5584C145.082 28.339 144.701 29.3105 144.701 30.4728C144.701 31.6351 145.082 32.6066 145.845 33.3873C146.626 34.1679 147.588 34.5582 148.733 34.5582C149.496 34.5582 150.181 34.3761 150.788 34.0118C151.412 33.6475 151.88 33.1617 152.193 32.5546L154.612 33.9337C154.057 34.9746 153.259 35.7986 152.219 36.4058C151.178 37.013 150.025 37.3165 148.759 37.3165Z" fill="white"/>
<path d="M163.378 37.3165C161.471 37.3165 159.849 36.6573 158.514 35.3389C157.178 34.0205 156.511 32.3984 156.511 30.4728C156.511 28.5472 157.178 26.9252 158.514 25.6068C159.849 24.2883 161.471 23.6291 163.378 23.6291C165.303 23.6291 166.925 24.2883 168.243 25.6068C169.578 26.9252 170.246 28.5472 170.246 30.4728C170.246 32.3984 169.578 34.0205 168.243 35.3389C166.925 36.6573 165.303 37.3165 163.378 37.3165ZM160.491 33.4133C161.271 34.1939 162.234 34.5843 163.378 34.5843C164.523 34.5843 165.485 34.1939 166.266 33.4133C167.046 32.6326 167.436 31.6525 167.436 30.4728C167.436 29.2932 167.046 28.313 166.266 27.5324C165.485 26.7517 164.523 26.3614 163.378 26.3614C162.234 26.3614 161.271 26.7517 160.491 27.5324C159.71 28.313 159.32 29.2932 159.32 30.4728C159.32 31.6525 159.71 32.6326 160.491 33.4133Z" fill="white"/>
<path d="M183.608 18.763H186.417V36.9783H183.608V35.1047C182.55 36.5793 181.032 37.3165 179.055 37.3165C177.269 37.3165 175.743 36.6573 174.477 35.3389C173.211 34.0031 172.578 32.3811 172.578 30.4728C172.578 28.5472 173.211 26.9252 174.477 25.6068C175.743 24.2883 177.269 23.6291 179.055 23.6291C181.032 23.6291 182.55 24.3577 183.608 25.8149V18.763ZM176.558 33.4653C177.338 34.246 178.318 34.6363 179.498 34.6363C180.677 34.6363 181.657 34.246 182.437 33.4653C183.217 32.6673 183.608 31.6698 183.608 30.4728C183.608 29.2758 183.217 28.287 182.437 27.5063C181.657 26.7083 180.677 26.3093 179.498 26.3093C178.318 26.3093 177.338 26.7083 176.558 27.5063C175.778 28.287 175.387 29.2758 175.387 30.4728C175.387 31.6698 175.778 32.6673 176.558 33.4653Z" fill="white"/>
<path d="M192.423 31.6698C192.631 32.6587 193.108 33.422 193.854 33.9597C194.6 34.4802 195.51 34.7404 196.585 34.7404C198.077 34.7404 199.195 34.2026 199.941 33.127L202.256 34.4802C200.973 36.3711 199.074 37.3165 196.559 37.3165C194.444 37.3165 192.735 36.6747 191.435 35.3909C190.134 34.0898 189.484 32.4505 189.484 30.4728C189.484 28.5299 190.125 26.9078 191.409 25.6068C192.692 24.2883 194.34 23.6291 196.351 23.6291C198.259 23.6291 199.82 24.297 201.034 25.6328C202.265 26.9686 202.881 28.5906 202.881 30.4988C202.881 30.7938 202.846 31.1841 202.777 31.6698H192.423ZM192.397 29.3799H200.045C199.854 28.3217 199.412 27.5237 198.718 26.9859C198.042 26.4481 197.244 26.1792 196.325 26.1792C195.285 26.1792 194.418 26.4655 193.724 27.038C193.03 27.6104 192.588 28.3911 192.397 29.3799Z" fill="white"/>
<defs>
<linearGradient id="paint0_linear" x1="49.996" y1="41.2741" x2="49.996" y2="20.5667" gradientUnits="userSpaceOnUse">
<stop stop-color="#00DCA4"/>
<stop offset="0.1503" stop-color="#00D59E"/>
<stop offset="0.3658" stop-color="#00C28E"/>
<stop offset="0.6206" stop-color="#00A375"/>
<stop offset="0.9033" stop-color="#007851"/>
<stop offset="1" stop-color="#006843"/>
</linearGradient>
<linearGradient id="paint1_linear" x1="21.7199" y1="49.6689" x2="21.7199" y2="12.1716" gradientUnits="userSpaceOnUse">
<stop stop-color="#00C3E6"/>
<stop offset="0.2433" stop-color="#00B9DC"/>
<stop offset="0.6556" stop-color="#009EC1"/>
<stop offset="1" stop-color="#0083A6"/>
</linearGradient>
<linearGradient id="paint2_linear" x1="62.1788" y1="39.5918" x2="37.8134" y2="39.5918" gradientUnits="userSpaceOnUse">
<stop stop-color="#A1FFD7"/>
<stop offset="1" stop-color="#00FFAF"/>
</linearGradient>
<linearGradient id="paint3_linear" x1="53.4559" y1="22.2486" x2="46.5173" y2="29.2243" gradientUnits="userSpaceOnUse">
<stop stop-color="#A1FFD7"/>
<stop offset="1" stop-color="#00FFAF"/>
</linearGradient>
<linearGradient id="paint4_linear" x1="27.8686" y1="34.1804" x2="15.6368" y2="46.4776" gradientUnits="userSpaceOnUse">
<stop stop-color="#B5FFFF"/>
<stop offset="1" stop-color="#00ECFF"/>
</linearGradient>
<linearGradient id="paint5_linear" x1="43.4399" y1="15.462" x2="0" y2="15.462" gradientUnits="userSpaceOnUse">
<stop stop-color="#B5FFFF"/>
<stop offset="1" stop-color="#00ECFF"/>
</linearGradient>
<linearGradient id="paint6_linear" x1="23.4161" y1="30.7284" x2="20.7908" y2="45.6964" gradientUnits="userSpaceOnUse">
<stop stop-color="#00C3E6"/>
<stop offset="0.5023" stop-color="#00C1E4"/>
<stop offset="0.7034" stop-color="#00BBDD"/>
<stop offset="0.8505" stop-color="#00B1D1"/>
<stop offset="0.9705" stop-color="#00A2C0"/>
<stop offset="1" stop-color="#009DBA"/>
</linearGradient>
<linearGradient id="paint7_linear" x1="48.1361" y1="30.9396" x2="50.2397" y2="36.7502" gradientUnits="userSpaceOnUse">
<stop stop-color="#14D5A4"/>
<stop offset="0.3907" stop-color="#12D2A1"/>
<stop offset="0.7334" stop-color="#0AC996"/>
<stop offset="0.9948" stop-color="#00BE88"/>
</linearGradient>
</defs>
</svg>
