<svg width="12" height="13" viewBox="0 0 12 13" fill="none" xmlns="http://www.w3.org/2000/svg">
<path d="M2.19113 0C0.97734 0 0 1.05878 0 2.37372V10.6263C0 11.9412 0.97734 13 2.19113 13H6.31988V7.91782H5.07938V6.08807H6.31988V4.52482C6.31988 3.29664 7.05283 2.16897 8.74126 2.16897C9.42487 2.16897 9.93038 2.24007 9.93038 2.24007L9.89063 3.94876C9.89063 3.94876 9.37507 3.94349 8.8125 3.94349C8.20363 3.94349 8.106 4.2474 8.106 4.75193V6.08808H9.939L9.85913 7.91783H8.106V13H9.80887C11.0227 13 12 11.9412 12 10.6263V2.37373C12 1.0588 11.0227 1.3e-05 9.80887 1.3e-05H2.19112L2.19113 0Z" fill="white"/>
</svg>
