<svg width="15" height="14" viewBox="0 0 15 14" fill="none" xmlns="http://www.w3.org/2000/svg">
<path d="M7.5 4.91718C6.28145 4.91718 5.28701 5.85311 5.28701 6.99999C5.28701 8.14686 6.28145 9.0828 7.5 9.0828C8.71856 9.0828 9.71299 8.14686 9.71299 6.99999C9.71299 5.85311 8.71856 4.91718 7.5 4.91718ZM14.1373 6.99999C14.1373 6.13749 14.1456 5.2828 14.0941 4.42186C14.0427 3.42186 13.8003 2.53436 13.0233 1.80311C12.2447 1.0703 11.3034 0.843739 10.2409 0.795301C9.32451 0.746864 8.41641 0.754676 7.50166 0.754676C6.58526 0.754676 5.67715 0.746864 4.7624 0.795301C3.6999 0.843739 2.75694 1.07186 1.97998 1.80311C1.20137 2.53593 0.960647 3.42186 0.909182 4.42186C0.857717 5.28436 0.866018 6.13905 0.866018 6.99999C0.866018 7.86093 0.857717 8.71718 0.909182 9.57811C0.960647 10.5781 1.20303 11.4656 1.97998 12.1969C2.7586 12.9297 3.6999 13.1562 4.7624 13.2047C5.67881 13.2531 6.58692 13.2453 7.50166 13.2453C8.41807 13.2453 9.32617 13.2531 10.2409 13.2047C11.3034 13.1562 12.2464 12.9281 13.0233 12.1969C13.802 11.4641 14.0427 10.5781 14.0941 9.57811C14.1473 8.71718 14.1373 7.86249 14.1373 6.99999ZM7.5 10.2047C5.61573 10.2047 4.09502 8.77343 4.09502 6.99999C4.09502 5.22655 5.61573 3.7953 7.5 3.7953C9.38428 3.7953 10.905 5.22655 10.905 6.99999C10.905 8.77343 9.38428 10.2047 7.5 10.2047ZM11.0444 4.41249C10.6045 4.41249 10.2492 4.07811 10.2492 3.66405C10.2492 3.24999 10.6045 2.91561 11.0444 2.91561C11.4844 2.91561 11.8397 3.24999 11.8397 3.66405C11.8398 3.76237 11.8193 3.85975 11.7794 3.95061C11.7395 4.04147 11.6809 4.12403 11.607 4.19355C11.5332 4.26308 11.4454 4.3182 11.3489 4.35577C11.2524 4.39334 11.1489 4.41261 11.0444 4.41249Z" fill="white"/>
</svg>
