<svg width="14" height="16" viewBox="0 0 14 16" fill="none" xmlns="http://www.w3.org/2000/svg">
<path d="M11.912 1.776V6.784H10.888V6.224C10.4933 6.64 10.0987 6.848 9.70399 6.848C9.22399 6.848 8.98399 6.54933 8.98399 5.952V1.776H10.008V5.616C10.008 5.84 10.0987 5.952 10.28 5.952C10.4613 5.952 10.664 5.824 10.888 5.568V1.776H11.912ZM8.11999 2.944V5.536C8.11999 5.984 7.98666 6.32533 7.71999 6.56C7.45332 6.79467 7.09066 6.912 6.63199 6.912C6.19466 6.912 5.83999 6.78667 5.56799 6.536C5.29599 6.28533 5.15999 5.94667 5.15999 5.52V2.928C5.15999 2.512 5.30666 2.19467 5.59999 1.976C5.89332 1.75733 6.25332 1.648 6.67999 1.648C7.08532 1.648 7.42666 1.76533 7.70399 2C7.98132 2.23467 8.11999 2.54933 8.11999 2.944ZM7.07999 5.616V2.88C7.07999 2.77333 7.03199 2.68533 6.93599 2.616C6.83999 2.54667 6.73866 2.512 6.63199 2.512C6.52532 2.512 6.42932 2.54667 6.34399 2.616C6.25866 2.68533 6.21599 2.77333 6.21599 2.88V5.616C6.21599 5.89333 6.35466 6.032 6.63199 6.032C6.93066 6.032 7.07999 5.89333 7.07999 5.616ZM4.03999 0H5.20799L4.32799 2.64C4.28532 2.768 4.23199 2.91467 4.16799 3.08C4.10399 3.24533 4.04799 3.39467 3.99999 3.528C3.95199 3.66133 3.91199 3.808 3.87999 3.968V6.784H2.72799V4.096C2.70666 3.968 2.55199 3.51467 2.26399 2.736L1.35199 0H2.51999L3.25599 2.704H3.33599L4.03999 0ZM13.816 11.824C13.816 12.3467 13.784 13.12 13.72 14.144C13.6773 14.6773 13.472 15.1013 13.104 15.416C12.736 15.7307 12.2853 15.8987 11.752 15.92C10.696 15.9733 9.11199 16 6.99999 16C4.87732 16 3.29332 15.9733 2.24799 15.92C1.71466 15.8987 1.26399 15.7307 0.89599 15.416C0.52799 15.1013 0.322657 14.6773 0.27999 14.144C0.21599 13.12 0.18399 12.3467 0.18399 11.824C0.18399 11.3013 0.21599 10.528 0.27999 9.504C0.322657 8.97067 0.52799 8.54667 0.89599 8.232C1.26399 7.91733 1.71466 7.74933 2.24799 7.728C3.29332 7.67467 4.87732 7.648 6.99999 7.648C9.12266 7.648 10.7067 7.67467 11.752 7.728C12.2853 7.74933 12.736 7.91733 13.104 8.232C13.472 8.54667 13.6773 8.97067 13.72 9.504C13.784 10.528 13.816 11.3013 13.816 11.824ZM12.68 13.28V12.976H11.832C11.832 12.9973 11.8347 13.0667 11.84 13.184C11.8453 13.3013 11.8453 13.384 11.84 13.432C11.8347 13.48 11.8213 13.5413 11.8 13.616C11.7787 13.6907 11.7413 13.744 11.688 13.776C11.6347 13.808 11.56 13.824 11.464 13.824C11.3573 13.824 11.2747 13.792 11.216 13.728C11.1573 13.664 11.1253 13.6 11.12 13.536C11.1147 13.472 11.112 13.3813 11.112 13.264V12.496H12.68V11.472C12.68 11.0987 12.5787 10.8053 12.376 10.592C12.1733 10.3787 11.8853 10.272 11.512 10.272C11.1493 10.272 10.848 10.3813 10.608 10.6C10.368 10.8187 10.248 11.1093 10.248 11.472V13.28C10.248 13.664 10.352 13.9707 10.56 14.2C10.768 14.4293 11.064 14.544 11.448 14.544C12.2693 14.544 12.68 14.1227 12.68 13.28ZM9.62399 13.584V11.344C9.62399 10.672 9.35732 10.336 8.82399 10.336C8.55732 10.336 8.31199 10.4587 8.08799 10.704V8.944H7.25599V14.432H8.08799V14.112C8.32266 14.3573 8.58399 14.48 8.87199 14.48C9.37332 14.48 9.62399 14.1813 9.62399 13.584ZM5.62399 14.432H6.43999V10.384H5.62399V13.456C5.44266 13.6587 5.27732 13.76 5.12799 13.76C4.98932 13.76 4.91999 13.6693 4.91999 13.488V10.384H4.08799V13.792C4.08799 14.2613 4.27999 14.496 4.66399 14.496C4.98399 14.496 5.30399 14.3253 5.62399 13.984V14.432ZM3.12799 9.744H4.10399V8.944H1.23999V9.744H2.19999V14.432H3.12799V9.744ZM11.832 11.424V11.872H11.112V11.424C11.112 11.136 11.2347 10.992 11.48 10.992C11.7147 10.992 11.832 11.136 11.832 11.424ZM8.77599 11.376V13.504C8.77599 13.728 8.67999 13.84 8.48799 13.84C8.33866 13.84 8.20532 13.7813 8.08799 13.664V11.136C8.19466 11.0293 8.31199 10.976 8.43999 10.976C8.66399 10.976 8.77599 11.1093 8.77599 11.376Z" fill="white"/>
</svg>
